<svg width="28" height="24" viewBox="0 0 28 24" fill="none" xmlns="http://www.w3.org/2000/svg">
<path d="M11.8601 2.21045H16.2484L19.6387 9.38353H8.46878L11.8601 2.21045ZM11.3097 0.952759C11.1782 0.970982 11.0558 1.03018 10.96 1.12189C10.8643 1.2136 10.8002 1.33312 10.7768 1.46334L7.25512 9.38353H1.45084C1.08684 9.4191 0.819396 9.86814 0.945879 10.2287L5.42781 22.8028C5.51084 23.0431 5.74547 23.2143 5.98781 23.2153H22.1206C22.363 23.2153 22.5976 23.0422 22.6806 22.8018L27.1616 10.2287C27.2929 9.85084 26.984 9.38449 26.6016 9.38353H20.8524L17.3307 1.46334C17.2795 1.17872 17.0188 0.951797 16.7427 0.95372L11.3097 0.952759Z" fill="#881777"/>
<rect x="6" y="11.9297" width="3" height="3" rx="1.5" fill="#D9D9D9"/>
<rect x="19" y="11.9297" width="3" height="3" rx="1.5" fill="#D9D9D9"/>
</svg>
