<svg width="35" height="31" viewBox="0 0 35 31" fill="none" xmlns="http://www.w3.org/2000/svg">
<g clip-path="url(#clip0_518_120)">
<path d="M25.8903 3.4577C25.1393 2.72453 24.2458 2.14246 23.2613 1.74504C22.2768 1.34762 21.2208 1.14271 20.154 1.14212C19.0874 1.14281 18.0315 1.34778 17.0472 1.74519C16.0628 2.14261 15.1695 2.72463 14.4186 3.4577L14.1354 3.73411L13.853 3.4577C13.1028 2.72334 12.2097 2.14007 11.2253 1.74155C10.2409 1.34303 9.18468 1.13715 8.1176 1.1358C7.05063 1.13591 5.99425 1.34051 5.00942 1.73781C4.02459 2.13511 3.13083 2.71724 2.37971 3.45059C0.855158 4.93882 -0.000149639 6.94964 7.74758e-06 9.04524C-0.0029651 11.1409 0.849707 13.1529 2.37237 14.6431L11.6594 23.7048L11.6872 23.7348L12.411 24.4432C12.868 24.887 13.4866 25.1358 14.1313 25.1358C14.776 25.1358 15.3946 24.887 15.8516 24.4432L20.8665 19.5483L25.8813 14.6541C26.639 13.9195 27.2396 13.0475 27.649 12.0882C28.4773 10.1472 28.4788 7.96799 27.653 6.02599C27.2454 5.06619 26.6464 4.19349 25.8903 3.4577Z" fill="url(#paint0_linear_518_120)"/>
</g>
<defs>
<linearGradient id="paint0_linear_518_120" x1="14.1346" y1="1.13343" x2="14.1346" y2="25.1342" gradientUnits="userSpaceOnUse">
<stop stop-color="#9E3085"/>
<stop offset="1" stop-color="#841375"/>
</linearGradient>
<clipPath id="clip0_518_120">
<rect width="35" height="30" fill="white" transform="translate(0 0.929688)"/>
</clipPath>
</defs>
</svg>
