<svg width="18" height="19" viewBox="0 0 18 19" fill="none" xmlns="http://www.w3.org/2000/svg">
<g clip-path="url(#clip0_518_100)">
<path d="M8.11738 3.23968C8.82341 3.23001 9.52431 3.36071 10.1794 3.62421C10.8345 3.8877 11.4307 4.27873 11.9334 4.77458C12.4361 5.27042 12.8352 5.86121 13.1077 6.51262C13.3801 7.16404 13.5204 7.86309 13.5204 8.56918C13.5204 9.27527 13.3801 9.97432 13.1077 10.6257C12.8352 11.2771 12.4361 11.8679 11.9334 12.3638C11.4307 12.8596 10.8345 13.2507 10.1794 13.5141C9.52431 13.7776 8.82341 13.9083 8.11738 13.8987C6.71656 13.8795 5.37961 13.3095 4.39579 12.3122C3.41197 11.3148 2.86039 9.97014 2.86039 8.56918C2.86039 7.16822 3.41197 5.82359 4.39579 4.8262C5.37961 3.82881 6.71656 3.25887 8.11738 3.23968ZM17.1974 17.6497C17.3452 17.502 17.4625 17.3266 17.5426 17.1336C17.6226 16.9406 17.6638 16.7336 17.6638 16.5247C17.6638 16.3157 17.6226 16.1088 17.5426 15.9158C17.4625 15.7227 17.3452 15.5473 17.1974 15.3997L14.3924 12.5937C15.3849 11.0462 15.7706 9.1866 15.4753 7.37208C15.18 5.55756 14.2246 3.91616 12.7926 2.76327C11.3607 1.61038 9.55316 1.02733 7.71743 1.12614C5.8817 1.22495 4.14723 1.99865 2.8473 3.29859C1.54736 4.59853 0.773654 6.33299 0.674844 8.16873C0.576035 10.0045 1.15909 11.812 2.31198 13.2439C3.46487 14.6759 5.10627 15.6313 6.92078 15.9266C8.7353 16.2219 10.5949 15.8362 12.1424 14.8437L14.9474 17.6487C15.0951 17.7965 15.2704 17.9138 15.4635 17.9939C15.6565 18.0739 15.8634 18.1151 16.0724 18.1151C16.2814 18.1151 16.4883 18.0739 16.6813 17.9939C16.8743 17.9138 17.0497 17.7965 17.1974 17.6487V17.6497Z" fill="url(#paint0_linear_518_100)"/>
</g>
<defs>
<linearGradient id="paint0_linear_518_100" x1="2.10738" y1="0.379678" x2="18.8474" y2="20.1397" gradientUnits="userSpaceOnUse">
<stop stop-color="#9E3085"/>
<stop offset="1" stop-color="#841375"/>
</linearGradient>
<clipPath id="clip0_518_100">
<rect width="18" height="18" fill="white" transform="translate(0 0.929688)"/>
</clipPath>
</defs>
</svg>
